<svg width="13" height="16" viewBox="0 0 13 16" fill="none" xmlns="http://www.w3.org/2000/svg">
<path d="M9.28568 0.5H1.28568C0.654497 0.5 0.142822 1.01167 0.142822 1.64286V11.9286C0.142822 12.5598 0.654497 13.0714 1.28568 13.0714H9.28568C9.91686 13.0714 10.4285 12.5598 10.4285 11.9286V1.64286C10.4285 1.01167 9.91686 0.5 9.28568 0.5Z" fill="#008000"/>
<path d="M3.57146 15.5C3.38202 15.5 3.20034 15.4247 3.06639 15.2908C2.93243 15.1568 2.85718 14.9752 2.85718 14.7857C2.85718 14.5963 2.93243 14.4146 3.06639 14.2806C3.20034 14.1467 3.38202 14.0714 3.57146 14.0714H11C11.1136 14.0712 11.2225 14.026 11.3028 13.9457C11.3832 13.8653 11.4284 13.7565 11.4286 13.6429V6.21429C11.4286 6.02485 11.5039 5.84316 11.6378 5.70921C11.7718 5.57525 11.9535 5.5 12.1429 5.5C12.3323 5.5 12.514 5.57525 12.648 5.70921C12.7819 5.84316 12.8572 6.02485 12.8572 6.21429V13.6429C12.8566 14.1352 12.6608 14.6073 12.3126 14.9554C11.9644 15.3036 11.4924 15.4994 11 15.5H3.57146Z" fill="#008000"/>
</svg>
