<svg width="15" height="16" viewBox="0 0 15 16" fill="none" xmlns="http://www.w3.org/2000/svg">
<path d="M14.25 2.75H0.75C0.551088 2.75 0.360322 2.82902 0.21967 2.96967C0.0790176 3.11032 0 3.30109 0 3.5C0 3.69891 0.0790176 3.88968 0.21967 4.03033C0.360322 4.17098 0.551088 4.25 0.75 4.25H2.25V13.25C2.25018 13.8467 2.48729 14.4189 2.90921 14.8408C3.33113 15.2627 3.90332 15.4998 4.5 15.5H10.5C11.0967 15.4998 11.6689 15.2627 12.0908 14.8408C12.5127 14.4189 12.7498 13.8467 12.75 13.25V4.25H14.25C14.4489 4.25 14.6397 4.17098 14.7803 4.03033C14.921 3.88968 15 3.69891 15 3.5C15 3.30109 14.921 3.11032 14.7803 2.96967C14.6397 2.82902 14.4489 2.75 14.25 2.75ZM6.75 11C6.75 11.1989 6.67098 11.3897 6.53033 11.5303C6.38968 11.671 6.19891 11.75 6 11.75C5.80109 11.75 5.61032 11.671 5.46967 11.5303C5.32902 11.3897 5.25 11.1989 5.25 11V7.25C5.25 7.05109 5.32902 6.86032 5.46967 6.71967C5.61032 6.57902 5.80109 6.5 6 6.5C6.19891 6.5 6.38968 6.57902 6.53033 6.71967C6.67098 6.86032 6.75 7.05109 6.75 7.25V11ZM9.75 11C9.75 11.1989 9.67098 11.3897 9.53033 11.5303C9.38968 11.671 9.19891 11.75 9 11.75C8.80109 11.75 8.61032 11.671 8.46967 11.5303C8.32902 11.3897 8.25 11.1989 8.25 11V7.25C8.25 7.05109 8.32902 6.86032 8.46967 6.71967C8.61032 6.57902 8.80109 6.5 9 6.5C9.19891 6.5 9.38968 6.57902 9.53033 6.71967C9.67098 6.86032 9.75 7.05109 9.75 7.25V11Z" fill="#FB5343"/>
<path d="M6 2H9C9.19891 2 9.38968 1.92098 9.53033 1.78033C9.67098 1.63968 9.75 1.44891 9.75 1.25C9.75 1.05109 9.67098 0.860322 9.53033 0.71967C9.38968 0.579018 9.19891 0.5 9 0.5H6C5.80109 0.5 5.61032 0.579018 5.46967 0.71967C5.32902 0.860322 5.25 1.05109 5.25 1.25C5.25 1.44891 5.32902 1.63968 5.46967 1.78033C5.61032 1.92098 5.80109 2 6 2Z" fill="#FB5343"/>
</svg>
