<svg width="30" height="30" viewBox="0 0 30 30" fill="none" xmlns="http://www.w3.org/2000/svg">
<path d="M28.3639 1.63611C27.3089 0.581074 25.9061 5.85938e-05 24.414 0.000117188L5.58598 0C2.50582 0.000117188 0 2.506 0 5.58592V24.414C0 27.4941 2.50594 30 5.58598 30H24.414C27.4941 30 30 27.4941 30 24.414V5.58604C30 4.09395 29.419 2.69115 28.3639 1.63611ZM9.71865 12.7438C10.0618 12.4006 10.6183 12.4006 10.9616 12.7438L14.1211 15.9033L14.121 6.52729C14.121 6.04189 14.5145 5.64838 14.9999 5.64838C15.4853 5.64838 15.8788 6.04189 15.8788 6.52729L15.8789 15.903L19.0382 12.7437C19.3813 12.4005 19.9379 12.4005 20.2811 12.7437C20.6244 13.0869 20.6244 13.6434 20.2812 13.9866L15.6214 18.6465C15.4566 18.8113 15.233 18.9039 14.9999 18.9039C14.7669 18.9039 14.5433 18.8113 14.3786 18.6465L9.71877 13.9867C9.37541 13.6436 9.37541 13.087 9.71865 12.7438ZM23.4728 24.3516H6.52734C6.04201 24.3516 5.64844 23.958 5.64844 23.4727C5.64844 22.9873 6.04201 22.5938 6.52734 22.5938H23.4727C23.958 22.5938 24.3516 22.9873 24.3516 23.4727C24.3517 23.958 23.9581 24.3516 23.4728 24.3516Z" fill="#008000"/>
</svg>
