<svg width="90" height="17" viewBox="0 0 90 17" fill="none" xmlns="http://www.w3.org/2000/svg">
<path d="M11.7734 12.3359C11.2526 12.5391 10.5625 12.7422 9.70312 12.9453C8.84375 13.1432 7.98698 13.2422 7.13281 13.2422C5.15365 13.2422 3.60417 12.7057 2.48438 11.6328C1.36458 10.5547 0.804688 9.06771 0.804688 7.17188C0.804688 5.36458 1.36979 3.90885 2.5 2.80469C3.63021 1.69531 5.20573 1.14062 7.22656 1.14062C7.99219 1.14062 8.72135 1.21094 9.41406 1.35156C10.1068 1.48698 10.8776 1.76042 11.7266 2.17188V4.89844H11.3906C11.2448 4.78906 11.0312 4.63542 10.75 4.4375C10.4688 4.23438 10.1979 4.0625 9.9375 3.92188C9.63542 3.75521 9.28125 3.61198 8.875 3.49219C8.47396 3.3724 8.04688 3.3125 7.59375 3.3125C7.0625 3.3125 6.58073 3.39062 6.14844 3.54688C5.71615 3.70312 5.32812 3.94271 4.98438 4.26562C4.65625 4.57812 4.39583 4.97656 4.20312 5.46094C4.01562 5.9401 3.92188 6.49479 3.92188 7.125C3.92188 8.41146 4.26302 9.39583 4.94531 10.0781C5.6276 10.7604 6.63542 11.1016 7.96875 11.1016C8.08333 11.1016 8.20833 11.099 8.34375 11.0938C8.48438 11.0885 8.61198 11.0807 8.72656 11.0703V8.78906H6.40625V6.59375H11.7734V12.3359ZM22.9531 9.13281H16.5156C16.5573 9.82031 16.8177 10.3464 17.2969 10.7109C17.7812 11.0755 18.4922 11.2578 19.4297 11.2578C20.0234 11.2578 20.599 11.151 21.1562 10.9375C21.7135 10.724 22.1536 10.4948 22.4766 10.25H22.7891V12.5078C22.1536 12.763 21.5547 12.9479 20.9922 13.0625C20.4297 13.1771 19.8073 13.2344 19.125 13.2344C17.3646 13.2344 16.0156 12.8385 15.0781 12.0469C14.1406 11.2552 13.6719 10.1276 13.6719 8.66406C13.6719 7.21615 14.1146 6.07031 15 5.22656C15.8906 4.3776 17.1094 3.95312 18.6562 3.95312C20.0833 3.95312 21.1562 4.3151 21.875 5.03906C22.5938 5.75781 22.9531 6.79427 22.9531 8.14844V9.13281ZM20.1562 7.48438C20.1406 6.89583 19.9948 6.45312 19.7188 6.15625C19.4427 5.85938 19.013 5.71094 18.4297 5.71094C17.888 5.71094 17.4427 5.85156 17.0938 6.13281C16.7448 6.41406 16.5495 6.86458 16.5078 7.48438H20.1562ZM33.9062 8.61719C33.9062 10.0599 33.4844 11.1979 32.6406 12.0312C31.8021 12.8594 30.6224 13.2734 29.1016 13.2734C27.5807 13.2734 26.3984 12.8594 25.5547 12.0312C24.7161 11.1979 24.2969 10.0599 24.2969 8.61719C24.2969 7.16406 24.7188 6.02344 25.5625 5.19531C26.4115 4.36719 27.5911 3.95312 29.1016 3.95312C30.6328 3.95312 31.8151 4.36979 32.6484 5.20312C33.487 6.03646 33.9062 7.17448 33.9062 8.61719ZM30.4453 10.75C30.6276 10.526 30.763 10.2578 30.8516 9.94531C30.9453 9.6276 30.9922 9.1901 30.9922 8.63281C30.9922 8.11719 30.9453 7.6849 30.8516 7.33594C30.7578 6.98698 30.6276 6.70833 30.4609 6.5C30.2943 6.28646 30.0938 6.13542 29.8594 6.04688C29.625 5.95833 29.3724 5.91406 29.1016 5.91406C28.8307 5.91406 28.5885 5.95052 28.375 6.02344C28.1667 6.09635 27.9661 6.24219 27.7734 6.46094C27.6016 6.66406 27.4635 6.94271 27.3594 7.29688C27.2604 7.65104 27.2109 8.09635 27.2109 8.63281C27.2109 9.11198 27.2552 9.52865 27.3438 9.88281C27.4323 10.2318 27.5625 10.513 27.7344 10.7266C27.901 10.9297 28.099 11.0781 28.3281 11.1719C28.5625 11.2656 28.8281 11.3125 29.125 11.3125C29.3802 11.3125 29.6224 11.2708 29.8516 11.1875C30.0859 11.099 30.2839 10.9531 30.4453 10.75ZM45.6797 5.03906C45.6797 5.5599 45.5885 6.07031 45.4062 6.57031C45.224 7.0651 44.9635 7.48177 44.625 7.82031C44.1615 8.27865 43.6432 8.625 43.0703 8.85938C42.5026 9.09375 41.7943 9.21094 40.9453 9.21094H39.0781V13H36.0781V1.36719H41.0156C41.7552 1.36719 42.3776 1.43229 42.8828 1.5625C43.3932 1.6875 43.8438 1.8776 44.2344 2.13281C44.7031 2.4401 45.0599 2.83333 45.3047 3.3125C45.5547 3.79167 45.6797 4.36719 45.6797 5.03906ZM42.5781 5.10938C42.5781 4.78125 42.4896 4.5 42.3125 4.26562C42.1354 4.02604 41.9297 3.85938 41.6953 3.76562C41.3828 3.64062 41.0781 3.57292 40.7812 3.5625C40.4844 3.54688 40.0885 3.53906 39.5938 3.53906H39.0781V7.02344H39.9375C40.4479 7.02344 40.8672 6.99219 41.1953 6.92969C41.5286 6.86719 41.8073 6.74219 42.0312 6.55469C42.224 6.38802 42.362 6.1901 42.4453 5.96094C42.5339 5.72656 42.5781 5.44271 42.5781 5.10938ZM50.4688 13H47.6562V0.84375H50.4688V13ZM61.8672 13H59.0547V12.0312C58.5339 12.4271 58.0573 12.7292 57.625 12.9375C57.1927 13.1406 56.6771 13.2422 56.0781 13.2422C55.1094 13.2422 54.362 12.9635 53.8359 12.4062C53.3151 11.849 53.0547 11.026 53.0547 9.9375V4.22656H55.8828V8.57812C55.8828 9.02083 55.8958 9.39062 55.9219 9.6875C55.9531 9.97917 56.0208 10.2214 56.125 10.4141C56.224 10.6068 56.3724 10.7474 56.5703 10.8359C56.7734 10.9245 57.0547 10.9688 57.4141 10.9688C57.6536 10.9688 57.9193 10.9245 58.2109 10.8359C58.5026 10.7474 58.7839 10.6172 59.0547 10.4453V4.22656H61.8672V13ZM73.0625 11.9922C73.0625 12.8151 72.9453 13.5078 72.7109 14.0703C72.4766 14.6328 72.1484 15.0729 71.7266 15.3906C71.3047 15.7135 70.7943 15.9453 70.1953 16.0859C69.6016 16.2318 68.9297 16.3047 68.1797 16.3047C67.5703 16.3047 66.9688 16.2682 66.375 16.1953C65.7865 16.1224 65.276 16.0339 64.8438 15.9297V13.7344H65.1875C65.5312 13.8698 65.9505 13.9922 66.4453 14.1016C66.9401 14.2161 67.3828 14.2734 67.7734 14.2734C68.2943 14.2734 68.7161 14.224 69.0391 14.125C69.3672 14.0312 69.6172 13.8958 69.7891 13.7188C69.9505 13.5521 70.0677 13.3385 70.1406 13.0781C70.2135 12.8177 70.25 12.5052 70.25 12.1406V11.9766C69.9115 12.2526 69.5365 12.4714 69.125 12.6328C68.7135 12.7943 68.2552 12.875 67.75 12.875C66.5208 12.875 65.5729 12.5052 64.9062 11.7656C64.2396 11.026 63.9062 9.90104 63.9062 8.39062C63.9062 7.66667 64.0078 7.04167 64.2109 6.51562C64.4141 5.98958 64.7005 5.53125 65.0703 5.14062C65.4141 4.77604 65.8359 4.49219 66.3359 4.28906C66.8411 4.08594 67.3568 3.98438 67.8828 3.98438C68.3568 3.98438 68.7865 4.04167 69.1719 4.15625C69.5625 4.26562 69.9167 4.41927 70.2344 4.61719L70.3359 4.22656H73.0625V11.9922ZM70.25 10.2344V6.25781C70.0885 6.1901 69.8906 6.13802 69.6562 6.10156C69.4219 6.0599 69.2109 6.03906 69.0234 6.03906C68.2839 6.03906 67.7292 6.2526 67.3594 6.67969C66.9896 7.10156 66.8047 7.69271 66.8047 8.45312C66.8047 9.29688 66.9609 9.88542 67.2734 10.2188C67.5911 10.5521 68.0599 10.7188 68.6797 10.7188C68.9609 10.7188 69.237 10.6745 69.5078 10.5859C69.7786 10.4974 70.026 10.3802 70.25 10.2344ZM78.5312 13H75.7188V4.22656H78.5312V13ZM78.6094 2.97656H75.6406V0.84375H78.6094V2.97656ZM90 13H87.1719V8.64844C87.1719 8.29427 87.1536 7.94271 87.1172 7.59375C87.0807 7.23958 87.0182 6.97917 86.9297 6.8125C86.8255 6.61979 86.6719 6.47917 86.4688 6.39062C86.2708 6.30208 85.9922 6.25781 85.6328 6.25781C85.3776 6.25781 85.1172 6.29948 84.8516 6.38281C84.5911 6.46615 84.3073 6.59896 84 6.78125V13H81.1875V4.22656H84V5.19531C84.5 4.80469 84.9792 4.50521 85.4375 4.29688C85.901 4.08854 86.4141 3.98438 86.9766 3.98438C87.9245 3.98438 88.6641 4.26042 89.1953 4.8125C89.7318 5.36458 90 6.1901 90 7.28906V13Z" fill="#0A0D12"/>
</svg>
