<svg width="27" height="24" viewBox="0 0 27 24" fill="none" xmlns="http://www.w3.org/2000/svg">
<path d="M25.5 10.5H1.49998C0.671625 10.5 0 11.1716 0 12C0 12.8283 0.671625 13.5 1.49998 13.5H25.5C26.3284 13.5 27 12.8283 27 12C27 11.1716 26.3284 10.5 25.5 10.5Z" fill="black"/>
<path d="M25.5 0H1.49998C0.671625 0 0 0.671678 0 1.50003C0 2.32838 0.671625 3.00001 1.49998 3.00001H25.5C26.3283 3.00001 27 2.32838 27 1.50003C27 0.671678 26.3284 0 25.5 0Z" fill="black"/>
<path d="M25.5 21H1.49998C0.671625 21 0 21.6716 0 22.5C0 23.3283 0.671625 24 1.49998 24H25.5C26.3283 24 27 23.3283 27 22.5C27 21.6716 26.3284 21 25.5 21Z" fill="black"/>
</svg>
