<svg width="339" height="250" viewBox="0 0 339 250" fill="none" xmlns="http://www.w3.org/2000/svg">
<path opacity="0.1" d="M3.64893 119.859C9.00074 140.543 20.3206 158.422 38.2093 167.089C75.3978 185.101 159.268 175.812 221.863 165.148C254.242 159.633 282.701 144.412 303.375 122.993L3.64893 119.859Z" fill="#A3916A"/>
<path opacity="0.1" d="M331.893 22.4997H297.548C295.918 22.4997 294.581 21.2919 294.581 19.8161C294.581 18.3403 295.918 17.1294 297.548 17.1294H303.488C301.855 17.1294 300.521 15.9216 300.521 14.4427C300.521 12.9638 301.855 11.7591 303.488 11.7591H299.249C297.616 11.7591 296.279 10.5513 296.279 9.07242C296.279 7.59351 297.616 6.38881 299.249 6.38881H317.174C313.197 4.71579 308.547 3.5265 303.189 2.90104C254.308 -2.77737 236.857 0.978458 230.701 4.83904C223.028 9.71096 214.505 13.0915 205.578 14.8032C175.421 20.4323 119.022 27.2045 67.9035 12.6465C42.497 5.39671 23.6132 17.6316 12.2964 38.0838H337.858C337.432 32.1404 336.16 26.6499 333.824 21.8465C333.271 22.2736 332.591 22.5035 331.893 22.4997Z" fill="#A3916A"/>
<path opacity="0.1" d="M0.739124 76.6836C-0.580049 88.7126 -0.131623 100.87 2.07015 112.769L303.608 122.749C311.909 114.14 318.961 104.409 324.56 93.8421L0.739124 76.6836ZM120.001 102.426H114.064C115.697 102.426 117.034 103.637 117.034 105.113C117.034 106.588 115.697 107.796 114.064 107.796H79.7193C78.0894 107.796 76.7522 106.588 76.7522 105.113C76.7522 103.637 78.0894 102.426 79.7193 102.426H85.6596C84.0266 102.426 82.6925 101.218 82.6925 99.7423C82.6925 98.2665 84.0266 97.0556 85.6596 97.0556H81.4169C79.784 97.0556 78.4468 95.8478 78.4468 94.372C78.4468 92.8962 79.784 91.6853 81.4169 91.6853H115.762C117.395 91.6853 118.729 92.8931 118.729 94.372C118.729 95.8509 117.395 97.0556 115.762 97.0556H120.001C121.634 97.0556 122.968 98.2634 122.968 99.7423C122.968 101.221 121.634 102.426 120.001 102.426Z" fill="#A3916A"/>
<path opacity="0.1" d="M337.872 38.2695L8.66571 45.51C4.66032 54.8241 2.00443 65.3552 0.78125 76.2684H332.104C334.26 69.8835 335.86 63.3241 336.886 56.6635C337.875 50.2518 338.269 44.0496 337.872 38.2695ZM67.622 62.0092H61.6847C63.3177 62.0092 64.6549 63.22 64.6549 64.6959C64.6549 66.1717 63.3177 67.3825 61.6847 67.3825H27.3401C25.7102 67.3825 24.373 66.1717 24.373 64.6959C24.373 63.22 25.7102 62.0092 27.3401 62.0092H33.2804C31.6474 62.0092 30.3133 60.8014 30.3133 59.3256C30.3133 57.8497 31.6474 56.6389 33.2804 56.6389H29.0377C27.4048 56.6389 26.0676 55.4311 26.0676 53.9553C26.0676 52.4794 27.4048 51.2686 29.0377 51.2686H63.3824C65.0154 51.2686 66.3495 52.4763 66.3495 53.9553C66.3495 55.4342 65.0154 56.6389 63.3824 56.6389H67.622C69.2549 56.6389 70.589 57.8497 70.589 59.3256C70.589 60.8014 69.2549 62.0092 67.622 62.0092Z" fill="#A3916A"/>
<path opacity="0.1" d="M167.949 240.655C244.008 240.655 305.666 234.983 305.666 227.986C305.666 220.989 244.008 215.316 167.949 215.316C91.8892 215.316 30.231 220.989 30.231 227.986C30.231 234.983 91.8892 240.655 167.949 240.655Z" fill="#A3916A"/>
<path opacity="0.1" d="M263.342 233.529C262.446 233.563 257.35 233.529 257.35 233.529C257.275 233.451 257.205 233.369 257.14 233.283C258.443 232.839 261.26 232.174 263.342 233.529Z" fill="black"/>
<path opacity="0.1" d="M277.919 233.529C277.022 233.563 271.926 233.529 271.926 233.529C271.851 233.451 271.781 233.369 271.716 233.283C273.013 232.839 275.83 232.174 277.919 233.529Z" fill="black"/>
<path d="M157.064 211.621C198.153 211.621 231.462 178.312 231.462 137.223C231.462 96.1336 198.153 62.8242 157.064 62.8242C115.974 62.8242 82.665 96.1336 82.665 137.223C82.665 178.312 115.974 211.621 157.064 211.621Z" fill="white"/>
<path d="M247.422 154.339L240.477 143.667C239.229 141.752 239.229 139.276 240.477 137.357L247.425 126.681C253.75 116.943 249.47 103.899 238.676 99.7735L226.788 95.2188C224.651 94.4005 223.193 92.3955 223.075 90.1128L222.421 77.3989C221.828 65.8386 210.733 57.7629 199.525 60.7623L187.233 64.0686C185.031 64.6605 182.664 63.899 181.23 62.1197L173.224 52.2173C165.938 43.2004 152.188 43.2152 144.924 52.2236L136.918 62.1205C135.484 63.9001 133.12 64.6653 130.919 64.0694L118.627 60.7652C107.449 57.7544 96.321 65.8245 95.7273 77.3996L95.0731 90.1158C94.9561 92.3981 93.5018 94.4016 91.365 95.2196L79.4768 99.7706C68.6695 103.909 64.403 116.959 70.7313 126.689L77.6708 137.353C78.9191 139.272 78.9191 141.753 77.6749 143.667L70.7313 154.34C64.4059 164.048 68.6628 177.122 79.4768 181.255L91.365 185.807C93.5018 186.627 94.9561 188.63 95.0731 190.913L95.7273 203.629C96.3199 215.188 107.424 223.268 118.627 220.264L130.919 216.956C133.117 216.366 135.476 217.125 136.922 218.911L144.924 228.808C152.196 237.806 165.924 237.829 173.229 228.812L181.231 218.911C182.673 217.126 185.028 216.37 187.229 216.956L199.533 220.268C210.691 223.259 221.827 215.22 222.421 203.629L223.075 190.917C223.192 188.631 224.65 186.627 226.788 185.807L238.676 181.258C249.48 177.121 253.75 164.07 247.422 154.339ZM133.981 107.078C140.824 107.078 146.39 112.644 146.39 119.487C146.39 126.33 140.823 131.896 133.981 131.896C127.138 131.896 121.572 126.329 121.572 119.487C121.572 112.644 127.138 107.078 133.981 107.078ZM179.481 177.397C172.638 177.397 167.072 171.83 167.072 164.988C167.072 158.145 172.639 152.578 179.481 152.578C186.324 152.578 191.89 158.145 191.89 164.988C191.891 171.83 186.324 177.397 179.481 177.397ZM190.073 117.669L132.163 175.579C129.739 178.003 125.813 178.003 123.39 175.579C120.966 173.155 120.966 169.228 123.39 166.805L181.299 108.896C183.722 106.472 187.649 106.472 190.073 108.896C192.497 111.319 192.497 115.245 190.073 117.669Z" fill="#008000"/>
<path d="M254.919 21.3266C254.919 21.3266 228.976 19.7645 232.036 37.9428C232.036 37.9428 231.42 41.1532 234.341 42.6137C234.341 42.6137 234.387 41.2672 237 41.7232C237.931 41.879 238.877 41.9245 239.819 41.8588C241.091 41.7723 242.301 41.2725 243.263 40.4354C243.263 40.4354 250.556 37.4252 253.394 25.5045C253.394 25.5045 255.492 22.9041 255.409 22.2386L251.031 24.1057C251.031 24.1057 252.525 27.2638 251.339 29.8889C251.339 29.8889 251.197 24.2228 250.356 24.3429C250.187 24.3707 248.082 25.4367 248.082 25.4367C248.082 25.4367 250.655 30.9395 248.698 34.9357C248.698 34.9357 249.435 28.1573 247.263 25.8342L244.182 27.6335C244.182 27.6335 247.189 33.315 245.149 37.952C245.149 37.952 245.673 30.8409 243.534 28.071L240.74 30.2493C240.74 30.2493 243.565 35.8507 241.843 39.6959C241.843 39.6959 241.618 31.4171 240.136 30.7916C240.136 30.7916 237.693 32.9484 237.32 33.8326C237.32 33.8326 239.255 37.8966 238.056 40.041C238.056 40.041 237.32 34.5259 236.716 34.4951C236.716 34.4951 234.282 38.1492 234.026 40.6572C234.026 40.6572 234.134 36.9291 236.125 34.1469C236.125 34.1469 233.771 34.5505 232.4 36.0787C232.4 36.0787 232.778 33.4937 236.713 33.2688C236.713 33.2688 238.725 30.4958 239.264 30.3295C239.264 30.3295 235.336 29.9998 232.954 31.0566C232.954 31.0566 235.049 28.6195 239.982 29.7256L242.755 27.4764C242.755 27.4764 237.585 26.7677 235.391 27.5503C235.391 27.5503 237.915 25.3936 243.498 26.9649L246.502 25.1687C246.502 25.1687 242.093 24.2197 239.464 24.5524C239.464 24.5524 242.237 23.0581 247.38 24.6788L249.536 23.7144C249.536 23.7144 246.304 23.0797 245.358 22.9811C244.413 22.8825 244.363 22.6175 244.363 22.6175C246.416 22.2838 248.521 22.5281 250.442 23.3231C250.442 23.3231 254.996 21.6131 254.919 21.3266Z" fill="#A3916A"/>
<path d="M228.313 13.2497C228.313 13.2497 216.605 12.5411 217.973 20.7552C217.973 20.7552 217.698 22.2064 219.014 22.8657C219.014 22.8657 219.032 22.2495 220.216 22.4652C220.636 22.5344 221.063 22.5551 221.488 22.5268C222.063 22.4857 222.61 22.2599 223.047 21.8829C223.047 21.8829 226.341 20.521 227.622 15.1353C227.622 15.1353 228.571 13.9614 228.547 13.6595L226.569 14.5037C226.569 14.5037 227.247 15.9302 226.713 17.1165C226.713 17.1165 226.649 14.5561 226.27 14.6177C226.193 14.6177 225.241 15.1107 225.241 15.1107C225.241 15.1107 226.405 17.5971 225.527 19.4026C225.527 19.4026 225.86 16.34 224.88 15.2894L223.488 16.1028C223.488 16.1028 224.846 18.6724 223.925 20.7675C223.925 20.7675 224.159 17.554 223.195 16.3031L221.932 17.2859C221.932 17.2859 223.207 19.8155 222.431 21.5532C222.431 21.5532 222.329 17.8128 221.657 17.5293C221.657 17.5293 220.554 18.5029 220.385 18.9035C220.385 18.9035 221.26 20.7521 220.718 21.7103C220.718 21.7103 220.385 19.2178 220.102 19.2085C220.102 19.2085 219.002 20.8569 218.888 21.9815C218.941 20.9349 219.267 19.9205 219.833 19.039C219.2 19.159 218.615 19.4621 218.151 19.911C218.151 19.911 218.321 18.7433 220.105 18.6416C220.105 18.6416 221.014 17.3907 221.257 17.3137C221.257 17.3137 219.482 17.1658 218.407 17.6433C218.407 17.6433 219.353 16.5403 221.584 17.0271L222.816 16.0134C222.816 16.0134 220.48 15.7053 219.488 16.0442C219.488 16.0442 220.628 15.0706 223.152 15.7824L224.507 14.969C224.507 14.969 222.517 14.5407 221.328 14.6947C221.328 14.6947 222.582 14.02 224.905 14.7533L225.875 14.3158C225.875 14.3158 224.415 14.0292 223.99 13.9861C223.565 13.943 223.537 13.8228 223.537 13.8228C224.462 13.6689 225.411 13.7756 226.279 14.1309C226.279 14.1309 228.346 13.3791 228.313 13.2497Z" fill="#A3916A"/>
<path opacity="0.1" d="M330.626 224.921C335.209 224.921 338.924 224.293 338.924 223.519C338.924 222.745 335.209 222.117 330.626 222.117C326.044 222.117 322.329 222.745 322.329 223.519C322.329 224.293 326.044 224.921 330.626 224.921Z" fill="#A3916A"/>
<path opacity="0.1" d="M14.413 248.241C18.9955 248.241 22.7104 247.614 22.7104 246.839C22.7104 246.065 18.9955 245.438 14.413 245.438C9.83056 245.438 6.11572 246.065 6.11572 246.839C6.11572 247.614 9.83056 248.241 14.413 248.241Z" fill="#A3916A"/>
<path opacity="0.1" d="M62.5786 249.999C67.1611 249.999 70.8759 249.371 70.8759 248.597C70.8759 247.823 67.1611 247.195 62.5786 247.195C57.9961 247.195 54.2812 247.823 54.2812 248.597C54.2812 249.371 57.9961 249.999 62.5786 249.999Z" fill="#A3916A"/>
<path d="M312.47 240.639C319.312 240.639 324.859 239.701 324.859 238.544C324.859 237.387 319.312 236.449 312.47 236.449C305.627 236.449 300.081 237.387 300.081 238.544C300.081 239.701 305.627 240.639 312.47 240.639Z" fill="#A3916A"/>
<path d="M317.589 235.121C318.154 234.659 318.566 234.037 318.772 233.337C318.923 232.631 318.621 231.781 317.946 231.522C317.188 231.232 316.378 231.759 315.765 232.289C315.151 232.819 314.446 233.423 313.642 233.312C314.055 232.937 314.365 232.462 314.54 231.932C314.715 231.403 314.749 230.837 314.64 230.289C314.605 230.063 314.509 229.85 314.363 229.673C313.941 229.223 313.18 229.414 312.674 229.769C311.072 230.896 310.625 233.072 310.616 235.031C310.456 234.326 310.591 233.589 310.588 232.874C310.585 232.16 310.385 231.334 309.775 230.955C309.396 230.753 308.972 230.653 308.543 230.665C307.822 230.638 307.02 230.708 306.528 231.235C305.911 231.892 306.075 232.988 306.608 233.7C307.141 234.412 307.948 234.874 308.69 235.37C309.288 235.725 309.798 236.211 310.182 236.79C310.227 236.872 310.264 236.958 310.293 237.046H314.806C315.816 236.533 316.752 235.885 317.589 235.121Z" fill="#A3916A"/>
<path d="M18.2833 209.285C18.2833 209.285 19.9748 211.497 17.5007 214.831C15.0267 218.165 12.987 220.993 13.8035 223.076C13.8035 223.076 17.5346 216.871 20.5818 216.781C23.629 216.692 21.6232 213.016 18.2833 209.285Z" fill="#A3916A"/>
<path opacity="0.1" d="M18.2867 209.285C18.4336 209.499 18.5497 209.732 18.6318 209.978C21.5958 213.46 23.1733 216.711 20.3264 216.791C17.6705 216.868 14.4723 221.613 13.7236 222.811C13.7498 222.904 13.7807 222.995 13.8161 223.085C13.8161 223.085 17.5472 216.88 20.5944 216.791C23.6416 216.701 21.6266 213.016 18.2867 209.285Z" fill="black"/>
<path d="M21.4323 212.102C21.4323 212.882 21.343 213.513 21.2351 213.513C21.1273 213.513 21.041 212.897 21.041 212.102C21.041 211.307 21.1489 211.689 21.2598 211.689C21.3707 211.689 21.4323 211.323 21.4323 212.102Z" fill="#FFD037"/>
<path d="M22.4983 213.033C21.8143 213.405 21.2196 213.63 21.1672 213.535C21.1149 213.439 21.6294 213.063 22.3134 212.691C22.9974 212.318 22.7263 212.589 22.7786 212.691C22.831 212.792 23.1946 212.66 22.4983 213.033Z" fill="#FFD037"/>
<path d="M9.34334 209.285C9.34334 209.285 7.65183 211.497 10.1228 214.831C12.5939 218.165 14.6366 220.993 13.8201 223.076C13.8201 223.076 10.0859 216.871 7.04178 216.781C3.99768 216.692 6.00038 213.016 9.34334 209.285Z" fill="#A3916A"/>
<path opacity="0.1" d="M9.3478 209.285C9.19956 209.498 9.0833 209.732 9.00272 209.978C6.03874 213.46 4.45815 216.711 7.30814 216.791C9.96094 216.868 13.1622 221.613 13.9078 222.811C13.8827 222.904 13.8528 222.995 13.8184 223.085C13.8184 223.085 10.0842 216.88 7.04008 216.791C3.99599 216.701 6.00484 213.016 9.3478 209.285Z" fill="black"/>
<path d="M6.19971 212.102C6.19971 212.882 6.28598 213.513 6.39382 213.513C6.50165 213.513 6.58792 212.897 6.58792 212.102C6.58792 211.307 6.48009 211.689 6.37225 211.689C6.26441 211.689 6.19971 211.323 6.19971 212.102Z" fill="#FFD037"/>
<path d="M5.11609 213.033C5.80009 213.405 6.39781 213.63 6.45019 213.535C6.50257 213.439 5.98803 213.063 5.30403 212.691C4.62004 212.318 4.88809 212.589 4.83879 212.691C4.7895 212.792 4.43209 212.66 5.11609 213.033Z" fill="#FFD037"/>
<path d="M6.73584 222.792C6.73584 222.792 11.4684 222.648 12.898 221.631C14.3276 220.614 20.1785 219.403 20.5329 221.015C20.8872 222.626 27.644 229.118 22.3014 229.161C16.9588 229.204 9.88777 228.326 8.46432 227.46C7.04087 226.594 6.73584 222.792 6.73584 222.792Z" fill="#A8A8A8"/>
<path opacity="0.2" d="M22.3908 228.612C17.0482 228.655 9.97713 227.777 8.55367 226.912C7.46913 226.252 7.03779 223.883 6.89298 222.789H6.73584C6.73584 222.789 7.04395 226.607 8.45816 227.472C9.87237 228.338 16.9527 229.216 22.2952 229.173C23.8358 229.173 24.3688 228.609 24.3411 227.799C24.1254 228.295 23.54 228.603 22.3908 228.612Z" fill="black"/>
</svg>
