<svg width="20" height="20" viewBox="0 0 20 20" fill="none" xmlns="http://www.w3.org/2000/svg">
<path d="M7.50031 10.0004C10.2579 10.0004 12.5005 7.75782 12.5005 5.00021C12.5005 2.24259 10.2579 0 7.50031 0C4.7427 0 2.5001 2.24259 2.5001 5.00021C2.5001 7.75782 4.7427 10.0004 7.50031 10.0004ZM7.50031 1.66674C9.33872 1.66674 10.8338 3.1618 10.8338 5.00021C10.8338 6.83862 9.33872 8.33368 7.50031 8.33368C5.6619 8.33368 4.16684 6.83862 4.16684 5.00021C4.16684 3.1618 5.6619 1.66674 7.50031 1.66674ZM8.95871 13.5172C8.48535 13.3956 7.9945 13.3339 7.50031 13.3339C4.28351 13.3339 1.66674 15.9507 1.66674 19.1675C1.66674 19.6275 1.29339 20.0008 0.833368 20.0008C0.373349 20.0008 0 19.6275 0 19.1675C0 15.0323 3.36514 11.6672 7.50031 11.6672C8.13534 11.6672 8.7662 11.7463 9.37539 11.9038C9.82124 12.0188 10.0888 12.473 9.97458 12.9189C9.86041 13.3647 9.40789 13.6322 8.95954 13.5181L8.95871 13.5172ZM19.2683 9.89958C18.3233 8.95454 16.6765 8.95454 15.7323 9.89958L10.1429 15.489C9.51373 16.1182 9.16621 16.9557 9.16621 17.8466V19.1683C9.16621 19.6283 9.53956 20.0017 9.99958 20.0017H11.3213C12.2122 20.0017 13.0489 19.6542 13.6781 19.025L19.2675 13.4356C19.74 12.963 20 12.3355 20 11.6672C20 10.9988 19.74 10.3713 19.2683 9.89958ZM18.0891 12.2563L12.4989 17.8457C12.1847 18.1608 11.7663 18.3341 11.3205 18.3341H10.8321V17.8457C10.8321 17.4007 11.0055 16.9824 11.3205 16.6674L16.9107 11.078C17.2249 10.7629 17.7741 10.7629 18.0891 11.078C18.2466 11.2346 18.3333 11.4438 18.3333 11.6672C18.3333 11.8905 18.2466 12.0988 18.0891 12.2563Z" fill="#A3916A"/>
</svg>
