<svg width="20" height="20" viewBox="0 0 20 20" fill="none" xmlns="http://www.w3.org/2000/svg">
<path d="M11.6667 15.0038H8.33333C7.41417 15.0038 6.66667 14.2563 6.66667 13.3371V10.0038C6.66667 9.08458 7.41417 8.33708 8.33333 8.33708H11.6667C12.5858 8.33708 13.3333 9.08458 13.3333 10.0038V13.3371C13.3333 14.2563 12.5858 15.0038 11.6667 15.0038ZM8.33333 10.0038V13.3371H11.6683L11.6667 10.0038H8.33333ZM15.8333 20.0038H4.16667C1.86917 20.0038 0 18.1346 0 15.8371V8.10708C0 6.71958 0.686667 5.42792 1.83667 4.65292L7.66917 0.71625C9.085 -0.23875 10.915 -0.23875 12.3308 0.71625L18.1642 4.65292C19.3133 5.42792 20 6.71875 20 8.10708V15.8371C20 18.1346 18.1308 20.0038 15.8333 20.0038ZM10 1.66792C9.51333 1.66792 9.02667 1.81125 8.60167 2.09875L2.76833 6.03458C2.07833 6.49958 1.66667 7.27375 1.66667 8.10625V15.8363C1.66667 17.2146 2.78833 18.3363 4.16667 18.3363H15.8333C17.2117 18.3363 18.3333 17.2146 18.3333 15.8363V8.10708C18.3333 7.27458 17.9217 6.49958 17.2325 6.03542L11.3983 2.09875C10.9733 1.81125 10.4867 1.66792 10 1.66792Z" fill="#008000"/>
</svg>
