<svg width="24" height="24" viewBox="0 0 24 24" fill="none" xmlns="http://www.w3.org/2000/svg">
<path d="M20.0609 12.9389C20.6469 13.5249 20.6469 14.4749 20.0609 15.0599C19.4749 15.6459 18.5249 15.6459 17.9399 15.0599C17.3539 14.4739 17.3539 13.5239 17.9399 12.9389C18.5259 12.3539 19.4759 12.3529 20.0609 12.9389ZM22.3888 18.3879C21.2199 19.5579 19.5949 20.1219 17.9759 19.9729L14.8429 23.1058C14.2839 23.6648 13.5119 23.9848 12.7219 23.9848H11.0079C9.91193 23.9848 9.01594 23.0918 9.01094 21.9949L9.00194 20.0069C8.99994 19.6059 9.15494 19.2279 9.43894 18.9429C9.72293 18.6579 10.0999 18.5009 10.5019 18.5009H10.9919L10.9959 17.9889C11.0019 17.1689 11.6749 16.5009 12.4959 16.5009H13.2579V16.1079C12.5479 13.7969 13.3939 11.3439 15.3959 9.95793C17.2009 8.70694 19.6399 8.67194 21.4669 9.86493C22.8858 10.7919 23.7978 12.2739 23.9698 13.9309C24.1428 15.5869 23.5658 17.2129 22.3888 18.3899V18.3879ZM21.9809 14.1349C21.8709 13.0649 21.2989 12.1419 20.3739 11.5379C19.2199 10.7839 17.6779 10.8099 16.5349 11.5999C15.2279 12.5059 14.6929 14.1239 15.2049 15.6269C15.2409 15.7309 15.2589 15.8399 15.2589 15.9489V17.4989C15.2589 18.0519 14.8119 18.4989 14.2589 18.4989H12.9939L12.9869 19.5069C12.9829 20.0559 12.5359 20.4989 11.9869 20.4989H11.0069L11.0129 21.9839H12.7239C12.9869 21.9839 13.2439 21.8779 13.4309 21.6909L16.9179 18.2039C17.1539 17.9689 17.4929 17.8619 17.8189 17.9309C18.9699 18.1589 20.1499 17.8009 20.9759 16.9739C21.7249 16.2249 22.0899 15.1899 21.9809 14.1349ZM1.99999 5.99996C1.99999 2.69098 4.69097 0 7.99995 0C11.3089 0 13.9999 2.69098 13.9999 5.99996C13.9999 9.30894 11.3089 11.9999 7.99995 11.9999C4.69097 11.9999 1.99999 9.30894 1.99999 5.99996ZM3.99997 5.99996C3.99997 8.20595 5.79396 9.99993 7.99995 9.99993C10.2059 9.99993 11.9999 8.20595 11.9999 5.99996C11.9999 3.79397 10.2059 1.99999 7.99995 1.99999C5.79396 1.99999 3.99997 3.79397 3.99997 5.99996ZM9.98993 15.2129C10.0689 14.6669 9.68894 14.1599 9.14194 14.0809C8.76594 14.0269 8.38094 13.9999 7.99995 13.9999C3.58898 13.9999 0 17.5889 0 21.9999V22.9998C0 23.5528 0.447997 23.9998 0.999993 23.9998C1.55199 23.9998 1.99999 23.5528 1.99999 22.9998V21.9999C1.99999 18.6909 4.69097 15.9999 7.99995 15.9999C8.28694 15.9999 8.57494 16.0209 8.85794 16.0619C9.40194 16.1349 9.91193 15.7599 9.98993 15.2129Z" fill="#757575"/>
</svg>
