<svg width="15" height="15" viewBox="0 0 15 15" fill="none" xmlns="http://www.w3.org/2000/svg">
<path d="M7.49996 0C3.36451 0 0 3.36443 0 7.49996C0 11.6355 3.36451 15 7.49996 15C11.6354 15 14.9999 11.6355 14.9999 7.49996C14.9999 3.36443 11.6355 0 7.49996 0ZM11.8066 6.23315L7.09473 10.945C6.89438 11.1453 6.62806 11.2556 6.34475 11.2556C6.06145 11.2556 5.79513 11.1453 5.59478 10.945L3.19335 8.54357C2.993 8.34322 2.88266 8.0769 2.88266 7.79359C2.88266 7.51021 2.993 7.24389 3.19335 7.04354C3.39362 6.8432 3.65994 6.73285 3.94332 6.73285C4.22663 6.73285 4.49303 6.8432 4.6933 7.04362L6.34468 8.69492L10.3065 4.73313C10.5068 4.53278 10.7731 4.42251 11.0564 4.42251C11.3397 4.42251 11.6061 4.53278 11.8064 4.73313C12.2201 5.14682 12.2201 5.81962 11.8066 6.23315Z" fill="#A3916A"/>
</svg>
